<svg viewBox="0 0 90 90" fill="none" xmlns="http://www.w3.org/2000/svg">
    <path d="M16.65 38.2499L25.65 16.6499L65.25 14.8499L75.15 38.2499H16.65Z" fill="white" />
    <path
        d="M17.543 41.6602L16.1719 45.4395V66.2695H73.8281V45.4395L72.457 41.6602H17.543ZM23.2031 54.5801C21.2607 54.5801 19.6875 53.0068 19.6875 51.0645C19.6875 49.1221 21.2607 47.5488 23.2031 47.5488C25.1455 47.5488 26.7188 49.1221 26.7188 51.0645C26.7188 53.0068 25.1455 54.5801 23.2031 54.5801ZM57.3047 61.1719C57.3047 61.5586 56.9883 61.875 56.6016 61.875H33.3984C33.0117 61.875 32.6953 61.5586 32.6953 61.1719V53.7891C32.6953 53.4023 33.0117 53.0859 33.3984 53.0859H36.9141C37.3008 53.0859 37.6172 53.4023 37.6172 53.7891V56.9531H52.3828V53.7891C52.3828 53.4023 52.6992 53.0859 53.0859 53.0859H56.6016C56.9883 53.0859 57.3047 53.4023 57.3047 53.7891V61.1719ZM66.7969 54.5801C64.8545 54.5801 63.2812 53.0068 63.2812 51.0645C63.2812 49.1221 64.8545 47.5488 66.7969 47.5488C68.7393 47.5488 70.3125 49.1221 70.3125 51.0645C70.3125 53.0068 68.7393 54.5801 66.7969 54.5801Z"
        fill="white" />
    <path
        d="M63.2812 51.0645C63.2812 51.9969 63.6516 52.8911 64.3109 53.5504C64.9703 54.2097 65.8645 54.5801 66.7969 54.5801C67.7293 54.5801 68.6235 54.2097 69.2828 53.5504C69.9421 52.8911 70.3125 51.9969 70.3125 51.0645C70.3125 50.1321 69.9421 49.2378 69.2828 48.5785C68.6235 47.9192 67.7293 47.5488 66.7969 47.5488C65.8645 47.5488 64.9703 47.9192 64.3109 48.5785C63.6516 49.2378 63.2812 50.1321 63.2812 51.0645Z"
        fill="currentColor" />
    <path
        d="M84.2867 36.334L82.2037 32.6953C82.1101 32.5349 81.9567 32.4181 81.7773 32.3703C81.5978 32.3226 81.4067 32.3478 81.2457 32.4404L76.7896 35.042L69.9078 16.04C69.5445 14.9062 68.8302 13.9172 67.8681 13.2157C66.906 12.5143 65.7459 12.1368 64.5553 12.1377H26.4723C23.4225 12.1377 20.7154 14.1064 19.775 17.0156L13.2184 35.0508L8.75351 32.4492C8.59254 32.3566 8.40144 32.3314 8.22195 32.3791C8.04245 32.4269 7.88914 32.5437 7.7955 32.7041L5.71249 36.334C5.51913 36.668 5.63339 37.0899 5.96738 37.2832L11.276 40.377L10.0016 43.8926C9.89609 44.1738 9.84335 44.4727 9.84335 44.7715V75.375C9.84335 76.7549 10.8805 77.8711 12.1549 77.8711H18.0963C19.1773 77.8711 20.1178 77.0537 20.3463 75.9112L21.023 72.5977H68.9762L69.6529 75.9112C69.8902 77.0537 70.8219 77.8711 71.9029 77.8711H77.8443C79.1187 77.8711 80.1558 76.7549 80.1558 75.375V44.7715C80.1558 44.4727 80.1031 44.1738 79.9976 43.8926L78.7232 40.377L84.023 37.2832C84.1826 37.1911 84.2996 37.04 84.3489 36.8625C84.3982 36.685 84.3759 36.4952 84.2867 36.334ZM25.7252 19.169L25.7691 19.0547L25.8043 18.9404C25.901 18.6504 26.1646 18.457 26.4723 18.457H64.0543L70.6812 36.7383H19.3355L25.7252 19.169ZM73.8277 66.2696H16.1715V45.4395L17.5426 41.6602H72.4566L73.8277 45.4395V66.2696Z"
        fill="currentColor" />
    <path
        d="M19.6875 51.0645C19.6875 51.9969 20.0579 52.8911 20.7172 53.5504C21.3765 54.2097 22.2707 54.5801 23.2031 54.5801C24.1355 54.5801 25.0297 54.2097 25.689 53.5504C26.3484 52.8911 26.7188 51.9969 26.7188 51.0645C26.7188 50.1321 26.3484 49.2378 25.689 48.5785C25.0297 47.9192 24.1355 47.5488 23.2031 47.5488C22.2707 47.5488 21.3765 47.9192 20.7172 48.5785C20.0579 49.2378 19.6875 50.1321 19.6875 51.0645ZM56.6016 53.0859H53.0859C52.6992 53.0859 52.3828 53.4023 52.3828 53.7891V56.9531H37.6172V53.7891C37.6172 53.4023 37.3008 53.0859 36.9141 53.0859H33.3984C33.0117 53.0859 32.6953 53.4023 32.6953 53.7891V61.1719C32.6953 61.5586 33.0117 61.875 33.3984 61.875H56.6016C56.9883 61.875 57.3047 61.5586 57.3047 61.1719V53.7891C57.3047 53.4023 56.9883 53.0859 56.6016 53.0859Z"
        fill="currentColor" />
</svg>