<svg viewBox="0 0 16 10" fill="none" xmlns="http://www.w3.org/2000/svg">
<path d="M8.66699 4.33337C9.06255 4.33337 9.44923 4.21608 9.77813 3.99631C10.107 3.77655 10.3634 3.46419 10.5148 3.09874C10.6661 2.73329 10.7057 2.33116 10.6286 1.94319C10.5514 1.55523 10.3609 1.19887 10.0812 0.919161C9.8015 0.639456 9.44513 0.448975 9.05717 0.371804C8.66921 0.294634 8.26708 0.334241 7.90162 0.485616C7.53617 0.636991 7.22382 0.893336 7.00405 1.22223C6.78429 1.55113 6.66699 1.93781 6.66699 2.33337C6.66699 2.86381 6.87771 3.37252 7.25278 3.74759C7.62785 4.12266 8.13656 4.33337 8.66699 4.33337ZM8.66699 1.66671C8.79885 1.66671 8.92774 1.70581 9.03737 1.77906C9.14701 1.85232 9.23245 1.95644 9.28291 2.07825C9.33337 2.20007 9.34657 2.33411 9.32085 2.46344C9.29513 2.59276 9.23163 2.71154 9.1384 2.80478C9.04516 2.89801 8.92637 2.96151 8.79705 2.98723C8.66773 3.01296 8.53369 2.99975 8.41187 2.94929C8.29005 2.89884 8.18593 2.81339 8.11268 2.70376C8.03942 2.59412 8.00033 2.46523 8.00033 2.33337C8.00033 2.15656 8.07056 1.98699 8.19559 1.86197C8.32061 1.73695 8.49018 1.66671 8.66699 1.66671ZM11.407 4.24004C11.797 3.68073 12.0061 3.01525 12.0061 2.33337C12.0061 1.6515 11.797 0.986021 11.407 0.426708C11.5987 0.364984 11.7989 0.333495 12.0003 0.333375C12.5308 0.333375 13.0395 0.544089 13.4145 0.919161C13.7896 1.29423 14.0003 1.80294 14.0003 2.33337C14.0003 2.86381 13.7896 3.37252 13.4145 3.74759C13.0395 4.12266 12.5308 4.33337 12.0003 4.33337C11.7989 4.33325 11.5987 4.30177 11.407 4.24004ZM8.66699 5.66671C4.66699 5.66671 4.66699 8.33338 4.66699 8.33338V9.66671H12.667V8.33338C12.667 8.33338 12.667 5.66671 8.66699 5.66671ZM6.00033 8.33338C6.00033 8.14004 6.21366 7.00004 8.66699 7.00004C11.0003 7.00004 11.2937 8.04004 11.3337 8.33338H6.00033ZM16.0003 8.33338V9.66671H14.0003V8.33338C13.9847 7.8378 13.8706 7.3503 13.6646 6.89932C13.4585 6.44834 13.1647 6.04291 12.8003 5.70671C16.0003 6.03338 16.0003 8.33338 16.0003 8.33338ZM4.89366 2.94671L5.66699 3.88671L2.50033 7.05338L0.666992 5.05338L1.44033 4.28004L2.50033 5.33338L4.89366 2.94671Z" fill="currentColor"/>
</svg>
