<svg  viewBox="0 0 22 22" fill="none" xmlns="http://www.w3.org/2000/svg">
<g clip-path="url(#clip0)">
<path d="M15.5914 7.09521H14.4399C14.1894 7.09521 13.9513 7.21553 13.8039 7.42178L9.94412 12.7745L8.19591 10.3486C8.04859 10.1448 7.81287 10.022 7.55997 10.022H6.40841C6.24881 10.022 6.15551 10.2037 6.24881 10.3338L9.30819 14.5767C9.38046 14.6776 9.47574 14.7598 9.58612 14.8165C9.6965 14.8732 9.8188 14.9027 9.9429 14.9027C10.067 14.9027 10.1893 14.8732 10.2997 14.8165C10.4101 14.7598 10.5053 14.6776 10.5776 14.5767L15.7486 7.40705C15.8443 7.27691 15.751 7.09521 15.5914 7.09521Z" fill="currentColor"/>
<path d="M11 0C4.92545 0 0 4.92545 0 11C0 17.0746 4.92545 22 11 22C17.0746 22 22 17.0746 22 11C22 4.92545 17.0746 0 11 0ZM11 20.1339C5.9567 20.1339 1.86607 16.0433 1.86607 11C1.86607 5.9567 5.9567 1.86607 11 1.86607C16.0433 1.86607 20.1339 5.9567 20.1339 11C20.1339 16.0433 16.0433 20.1339 11 20.1339Z" fill="currentColor"/>
</g>
</svg>
