<svg viewBox="0 0 12 12" fill="none" xmlns="http://www.w3.org/2000/svg">
<path d="M6.92473 5.99916L11.6122 0.411663C11.6908 0.318806 11.6247 0.177734 11.5033 0.177734H10.0783C9.99438 0.177734 9.91402 0.215234 9.85866 0.27952L5.99259 4.88845L2.12652 0.27952C2.07295 0.215234 1.99259 0.177734 1.90688 0.177734H0.481875C0.360447 0.177734 0.294375 0.318806 0.372946 0.411663L5.06045 5.99916L0.372946 11.5867C0.355346 11.6074 0.344054 11.6327 0.340412 11.6596C0.33677 11.6865 0.34093 11.7139 0.352399 11.7386C0.363868 11.7632 0.382164 11.784 0.405114 11.7985C0.428065 11.8131 0.454706 11.8207 0.481875 11.8206H1.90688C1.9908 11.8206 2.07116 11.7831 2.12652 11.7188L5.99259 7.10988L9.85866 11.7188C9.91223 11.7831 9.99259 11.8206 10.0783 11.8206H11.5033C11.6247 11.8206 11.6908 11.6795 11.6122 11.5867L6.92473 5.99916Z" fill="currentColor" fill-opacity="0.65"/>
</svg>
