<svg viewBox="0 0 30 30" fill="none" xmlns="http://www.w3.org/2000/svg">
    <path
        d="M24.8625 24.2375C23.7416 21.5832 21.6294 19.4709 18.975 18.35C20.2221 17.4467 21.151 16.1716 21.6284 14.7076C22.1058 13.2436 22.1073 11.666 21.6325 10.2012C21.1577 8.73633 20.2311 7.45953 18.9856 6.55397C17.7402 5.64842 16.2399 5.16064 14.7 5.16064C13.1602 5.16064 11.6599 5.64842 10.4144 6.55397C9.16897 7.45953 8.24237 8.73633 7.76758 10.2012C7.29279 11.666 7.29421 13.2436 7.77163 14.7076C8.24905 16.1716 9.17794 17.4467 10.425 18.35C8.4522 19.1853 6.76363 20.5743 5.5635 22.349C4.36337 24.1237 3.7031 26.208 3.66252 28.35C3.65693 28.3831 3.65693 28.4169 3.66252 28.45C3.65893 28.4749 3.65893 28.5001 3.66252 28.525C3.66252 28.525 3.66252 28.525 3.73752 28.525H3.82502H5.58752C5.65051 28.525 5.71092 28.5 5.75546 28.4555C5.8 28.4109 5.82502 28.3505 5.82502 28.2875C5.87051 26.5595 6.42174 24.8828 7.41049 23.465C8.39924 22.0471 9.78209 20.9503 11.3879 20.3104C12.9936 19.6705 14.7518 19.5156 16.4447 19.8648C18.1377 20.2139 19.691 21.0519 20.9125 22.275C22.5158 23.871 23.4387 26.0258 23.4875 28.2875C23.4906 28.3495 23.5165 28.4082 23.5604 28.4521C23.6043 28.496 23.663 28.522 23.725 28.525H25.5H25.5875H25.6625C25.6661 28.5001 25.6661 28.4749 25.6625 28.45C25.6751 28.4179 25.6751 28.3822 25.6625 28.35C25.6665 26.9401 25.3948 25.5431 24.8625 24.2375ZM14.6625 17.5C13.4878 17.5034 12.3483 17.0992 11.4384 16.3563C10.5284 15.6134 9.90437 14.5779 9.67261 13.4263C9.44086 12.2747 9.61578 11.0783 10.1675 10.0413C10.7193 9.00424 11.6137 8.19071 12.6983 7.73945C13.7828 7.28818 14.9903 7.22713 16.1149 7.56669C17.2394 7.90625 18.2113 8.62541 18.8649 9.60151C19.5184 10.5776 19.8131 11.7502 19.6987 12.9193C19.5843 14.0884 19.0679 15.1816 18.2375 16.0125C17.7705 16.4857 17.2137 16.861 16.5999 17.1164C15.986 17.3718 15.3274 17.5022 14.6625 17.5Z"
        fill="currentColor" />
    <path
        d="M5.51245 9.5625L4.26245 9.05C4.26245 8.975 7.16245 2 14.6875 2C22.2125 2 25 8.975 25.075 9.05L23.825 9.55C23.0626 7.74958 21.7952 6.2084 20.1759 5.11262C18.5567 4.01685 16.6548 3.41334 14.7 3.375C12.7341 3.4071 10.8198 4.00874 9.1891 5.10699C7.55836 6.20524 6.28121 7.75295 5.51245 9.5625V9.5625Z"
        fill="currentColor" />
    <path
        d="M6.08755 13.75H5.40005C4.66076 13.75 3.95175 13.4564 3.42899 12.9336C2.90623 12.4109 2.61255 11.7018 2.61255 10.9625C2.61255 10.2233 2.90623 9.51425 3.42899 8.99149C3.95175 8.46873 4.66076 8.17505 5.40005 8.17505H6.08755V13.75ZM4.71255 9.80005C4.50197 9.93176 4.32984 10.1167 4.21353 10.3361C4.09721 10.5556 4.04083 10.8018 4.05005 11.05C4.04333 11.2978 4.1008 11.5432 4.21688 11.7622C4.33297 11.9812 4.50372 12.1665 4.71255 12.3V9.80005Z"
        fill="currentColor" />
    <path
        d="M23.8875 13.7499H23.2V8.2124H23.8875C24.6268 8.2124 25.3358 8.50608 25.8586 9.02884C26.3813 9.5516 26.675 10.2606 26.675 10.9999C26.675 11.7392 26.3813 12.4482 25.8586 12.971C25.3358 13.4937 24.6268 13.7874 23.8875 13.7874V13.7499ZM24.575 9.7624V12.2124C24.7856 12.0807 24.9577 11.8958 25.074 11.6763C25.1903 11.4569 25.2467 11.2106 25.2375 10.9624C25.234 10.7285 25.1715 10.4993 25.0557 10.296C24.9398 10.0928 24.7745 9.92211 24.575 9.7999V9.7624Z"
        fill="currentColor" />
</svg>