<svg viewBox="0 0 30 30" fill="none" xmlns="http://www.w3.org/2000/svg">
    <path
        d="M20.8927 8.29754V6.6904C20.8927 6.54307 20.7722 6.42254 20.6249 6.42254H7.76773C7.6204 6.42254 7.49987 6.54307 7.49987 6.6904V8.29754C7.49987 8.44486 7.6204 8.5654 7.76773 8.5654H20.6249C20.7722 8.5654 20.8927 8.44486 20.8927 8.29754ZM7.76773 11.244C7.6204 11.244 7.49987 11.3645 7.49987 11.5118V13.119C7.49987 13.2663 7.6204 13.3868 7.76773 13.3868H13.9284C14.0758 13.3868 14.1963 13.2663 14.1963 13.119V11.5118C14.1963 11.3645 14.0758 11.244 13.9284 11.244H7.76773ZM12.5892 26.3779H4.8213V2.80647H23.5713V14.3243C23.5713 14.4716 23.6918 14.5922 23.8392 14.5922H25.7142C25.8615 14.5922 25.982 14.4716 25.982 14.3243V1.46718C25.982 0.874547 25.5032 0.395752 24.9106 0.395752H3.48201C2.88938 0.395752 2.41058 0.874547 2.41058 1.46718V27.7172C2.41058 28.3098 2.88938 28.7886 3.48201 28.7886H12.5892C12.7365 28.7886 12.857 28.6681 12.857 28.5208V26.6458C12.857 26.4984 12.7365 26.3779 12.5892 26.3779ZM27.5121 28.1022L24.3883 24.9783C25.1349 23.9906 25.5802 22.7585 25.5802 21.4225C25.5802 18.1681 22.9418 15.5297 19.6874 15.5297C16.4329 15.5297 13.7945 18.1681 13.7945 21.4225C13.7945 24.677 16.4329 27.3154 19.6874 27.3154C20.886 27.3154 21.9976 26.9571 22.9284 26.3444L26.0992 29.5152C26.1528 29.5687 26.2197 29.5922 26.2867 29.5922C26.3537 29.5922 26.424 29.5654 26.4742 29.5152L27.5121 28.4772C27.5368 28.4526 27.5564 28.4234 27.5698 28.3913C27.5832 28.3591 27.5901 28.3246 27.5901 28.2897C27.5901 28.2549 27.5832 28.2204 27.5698 28.1882C27.5564 28.156 27.5368 28.1268 27.5121 28.1022ZM19.6874 25.1725C17.6148 25.1725 15.9374 23.4951 15.9374 21.4225C15.9374 19.35 17.6148 17.6725 19.6874 17.6725C21.7599 17.6725 23.4374 19.35 23.4374 21.4225C23.4374 23.4951 21.7599 25.1725 19.6874 25.1725Z"
        fill="currentColor" />
</svg>