<svg viewBox="0 0 16 16" fill="none" xmlns="http://www.w3.org/2000/svg">
    <path
        d="M14.5 2.5L1.5 2.5C1.22344 2.5 1 2.72344 1 3L1 13C1 13.2766 1.22344 13.5 1.5 13.5L14.5 13.5C14.7766 13.5 15 13.2766 15 13L15 3C15 2.72344 14.7766 2.5 14.5 2.5ZM13.875 12.375L2.125 12.375L2.125 3.625L13.875 3.625L13.875 12.375ZM9.53594 7.4375H11.4641C11.4844 7.4375 11.5 7.38125 11.5 7.3125V6.5625C11.5 6.49375 11.4844 6.4375 11.4641 6.4375H9.53594C9.51562 6.4375 9.5 6.49375 9.5 6.5625V7.3125C9.5 7.38125 9.51562 7.4375 9.53594 7.4375ZM9.61094 9.6875H12.5125C12.5734 9.6875 12.6234 9.63125 12.6234 9.5625V8.8125C12.6234 8.74375 12.5734 8.6875 12.5125 8.6875H9.61094C9.55 8.6875 9.5 8.74375 9.5 8.8125V9.5625C9.5 9.63125 9.55 9.6875 9.61094 9.6875V9.6875ZM3.5 10.5156H4.18594C4.25156 10.5156 4.30469 10.4641 4.30937 10.3984C4.36875 9.60938 5.02812 8.98438 5.82813 8.98438C6.62813 8.98438 7.2875 9.60938 7.34688 10.3984C7.35156 10.4641 7.40469 10.5156 7.47031 10.5156H8.15625C8.1732 10.5156 8.18999 10.5122 8.20557 10.5055C8.22116 10.4989 8.23523 10.4891 8.24692 10.4768C8.25862 10.4646 8.26769 10.45 8.27359 10.4341C8.27949 10.4182 8.2821 10.4013 8.28125 10.3844C8.2375 9.55156 7.78125 8.82656 7.11562 8.41406C7.40916 8.09139 7.57135 7.67058 7.57031 7.23437C7.57031 6.26719 6.79063 5.48437 5.82969 5.48437C4.86875 5.48438 4.08906 6.26719 4.08906 7.23437C4.08906 7.68906 4.26094 8.10156 4.54375 8.41406C4.20489 8.62405 3.92188 8.91293 3.71891 9.25603C3.51593 9.59914 3.399 9.98627 3.37812 10.3844C3.37187 10.4562 3.42813 10.5156 3.5 10.5156V10.5156ZM5.82813 6.42187C6.27344 6.42187 6.63594 6.78594 6.63594 7.23437C6.63594 7.68281 6.27344 8.04688 5.82813 8.04688C5.38281 8.04688 5.02031 7.68281 5.02031 7.23437C5.02031 6.78594 5.38281 6.42187 5.82813 6.42187Z"
        fill="currentColor" />
</svg>