<svg viewBox="0 0 16 16" fill="none" xmlns="http://www.w3.org/2000/svg">
    <path
        d="M1.27816 7.59684C1.82743 6.43965 2.48107 5.4959 3.23909 4.76559L4.03409 5.56059C3.38581 6.18012 2.82113 6.99059 2.33284 7.99996C3.63284 10.6906 5.47816 11.9687 8.00003 11.9687C8.75701 11.9687 9.45425 11.8521 10.0918 11.619L10.9532 12.4804C10.0677 12.8893 9.08337 13.0937 8.00003 13.0937C4.99691 13.0937 2.75628 11.5296 1.27816 8.40152C1.21873 8.27572 1.18791 8.13831 1.18791 7.99918C1.18791 7.86005 1.21873 7.72264 1.27816 7.59684ZM2.27144 2.58684L2.93753 1.91996C2.94914 1.90834 2.96293 1.89912 2.9781 1.89283C2.99328 1.88654 3.00954 1.8833 3.02597 1.8833C3.0424 1.8833 3.05866 1.88654 3.07384 1.89283C3.08901 1.89912 3.1028 1.90834 3.11441 1.91996L4.82331 3.62809C5.7655 3.14684 6.82441 2.90621 8.00003 2.90621C11.0032 2.90621 13.2438 4.47027 14.7219 7.5984C14.7813 7.72421 14.8121 7.86161 14.8121 8.00074C14.8121 8.13987 14.7813 8.27728 14.7219 8.40309C14.1314 9.64684 13.4204 10.6438 12.5891 11.3939L14.2425 13.0468C14.266 13.0703 14.2791 13.1021 14.2791 13.1352C14.2791 13.1683 14.266 13.2001 14.2425 13.2236L13.5755 13.8906C13.5521 13.914 13.5203 13.9272 13.4871 13.9272C13.454 13.9272 13.4222 13.914 13.3988 13.8906L2.27144 2.76371C2.25982 2.7521 2.2506 2.73832 2.24431 2.72314C2.23802 2.70797 2.23478 2.6917 2.23478 2.67527C2.23478 2.65885 2.23802 2.64258 2.24431 2.62741C2.2506 2.61223 2.25982 2.59845 2.27144 2.58684ZM13.6672 7.99996C12.3657 5.30934 10.5203 4.03121 8.00003 4.03121C7.14784 4.03121 6.373 4.17746 5.67003 4.47481L6.76847 5.57324C7.28868 5.29569 7.88432 5.19268 8.46752 5.27941C9.05073 5.36614 9.59062 5.63802 10.0075 6.05495C10.4245 6.47187 10.6964 7.01176 10.7831 7.59497C10.8698 8.17818 10.7668 8.77382 10.4893 9.29402L11.7927 10.5975C12.5141 9.96074 13.136 9.09809 13.6672 7.99996ZM9.81253 7.99996C9.81226 7.72444 9.747 7.45286 9.62205 7.2073C9.4971 6.96174 9.31598 6.74911 9.09342 6.58669C8.87086 6.42428 8.61312 6.31665 8.34115 6.27256C8.06917 6.22847 7.79063 6.24915 7.52816 6.33293L9.72956 8.53434C9.78474 8.36159 9.81273 8.18131 9.81253 7.99996Z"
        fill="currentColor" />
    <path
        d="M8.06238 9.75011C8.11645 9.75011 8.16973 9.74761 8.22254 9.74277L9.04785 10.5681C8.55146 10.7582 8.01063 10.8004 7.49074 10.6897C6.97086 10.579 6.49417 10.3201 6.11831 9.94419C5.74245 9.56833 5.48351 9.09164 5.37279 8.57176C5.26207 8.05187 5.30432 7.51104 5.49442 7.01465L6.31973 7.83996C6.31489 7.89277 6.31239 7.94605 6.31239 8.00012C6.31226 8.22996 6.35744 8.45758 6.44535 8.66996C6.53325 8.88233 6.66215 9.0753 6.82467 9.23783C6.9872 9.40035 7.18017 9.52925 7.39254 9.61715C7.60492 9.70506 7.83254 9.75024 8.06238 9.75011Z"
        fill="currentColor" />
</svg>