<svg viewBox="0 0 16 16" fill="none" xmlns="http://www.w3.org/2000/svg">
    <path
        d="M13.7144 7.14509H12.5001V3.14509C12.5001 1.88259 11.4769 0.859375 10.2144 0.859375H5.78578C4.52328 0.859375 3.50007 1.88259 3.50007 3.14509V7.14509H2.28578C1.96971 7.14509 1.71436 7.40045 1.71436 7.71652V14.5737C1.71436 14.8897 1.96971 15.1451 2.28578 15.1451H13.7144C14.0304 15.1451 14.2858 14.8897 14.2858 14.5737V7.71652C14.2858 7.40045 14.0304 7.14509 13.7144 7.14509ZM4.78578 3.14509C4.78578 2.5933 5.234 2.14509 5.78578 2.14509H10.2144C10.7661 2.14509 11.2144 2.5933 11.2144 3.14509V7.14509H4.78578V3.14509ZM13.0001 13.8594H3.00007V8.4308H13.0001V13.8594ZM7.50007 11.3772V12.3237C7.50007 12.4022 7.56436 12.4665 7.64293 12.4665H8.35721C8.43579 12.4665 8.50007 12.4022 8.50007 12.3237V11.3772C8.64748 11.2714 8.7575 11.1215 8.8143 10.9492C8.87111 10.7768 8.87176 10.5909 8.81618 10.4182C8.76059 10.2454 8.65162 10.0948 8.50497 9.98794C8.35831 9.88107 8.18153 9.82349 8.00007 9.82349C7.81861 9.82349 7.64183 9.88107 7.49517 9.98794C7.34852 10.0948 7.23955 10.2454 7.18397 10.4182C7.12838 10.5909 7.12903 10.7768 7.18584 10.9492C7.24264 11.1215 7.35267 11.2714 7.50007 11.3772V11.3772Z"
        fill="currentColor" />
</svg>