<svg viewBox="0 0 18 18" fill="none" xmlns="http://www.w3.org/2000/svg">
    <path
        d="M9.18955 0.601592C6.21104 0.59378 3.58994 2.1348 2.09189 4.46292C2.02549 4.56644 2.09971 4.70315 2.22275 4.70315H3.5958C3.68955 4.70315 3.77744 4.66214 3.83604 4.58987C3.97275 4.42386 4.11924 4.2637 4.27354 4.11136C4.91025 3.47659 5.65049 2.97659 6.47471 2.62894C7.32627 2.26956 8.23252 2.08597 9.16807 2.08597C10.1036 2.08597 11.0099 2.26761 11.8614 2.62894C12.6856 2.97659 13.4259 3.47659 14.0626 4.11136C14.6993 4.74612 15.1974 5.48636 15.547 6.30862C15.9083 7.16019 16.0899 8.06448 16.0899 9.00003C16.0899 9.93558 15.9063 10.8399 15.547 11.6914C15.1993 12.5137 14.6993 13.2539 14.0626 13.8887C13.4259 14.5235 12.6856 15.0235 11.8614 15.3711C11.0092 15.7311 10.0932 15.9157 9.16807 15.9141C8.23252 15.9141 7.32627 15.7305 6.47471 15.3711C5.65211 15.0238 4.9046 14.5204 4.27354 13.8887C4.11924 13.7344 3.97471 13.5742 3.83604 13.4102C3.77744 13.3379 3.6876 13.2969 3.5958 13.2969H2.22275C2.09971 13.2969 2.02354 13.4336 2.09189 13.5371C3.58799 15.8594 6.19736 17.3985 9.16807 17.3985C13.7813 17.3985 17.5274 13.6856 17.5743 9.08597C17.6212 4.41214 13.8692 0.613311 9.18955 0.601592ZM6.71533 11.1875V9.70315H0.58252C0.496582 9.70315 0.42627 9.63284 0.42627 9.5469V8.45315C0.42627 8.36722 0.496582 8.2969 0.58252 8.2969H6.71533V6.81253C6.71533 6.68167 6.86768 6.60745 6.96924 6.68948L9.74072 8.87698C9.7594 8.8916 9.7745 8.91027 9.78489 8.93159C9.79528 8.95291 9.80067 8.97632 9.80067 9.00003C9.80067 9.02374 9.79528 9.04715 9.78489 9.06847C9.7745 9.08979 9.7594 9.10846 9.74072 9.12308L6.96924 11.3106C6.86768 11.3907 6.71533 11.3184 6.71533 11.1875Z"
        fill="currentColor" />
</svg>