<svg viewBox="0 0 140 140" fill="none" xmlns="http://www.w3.org/2000/svg">
    <circle cx="70" cy="70" r="70" fill="white" />
    <g clip-path="url(#clip0)">
        <path
            d="M70.3927 104.492C95.0264 104.492 114.996 100.761 114.996 96.1579C114.996 91.5551 95.0264 87.8237 70.3927 87.8237C45.759 87.8237 25.7894 91.5551 25.7894 96.1579C25.7894 100.761 45.759 104.492 70.3927 104.492Z"
            fill="#F5F5F7" fill-opacity="0.8" />
        <path fill-rule="evenodd" clip-rule="evenodd"
            d="M106.075 71.6738L90.3348 52.3021C89.5795 51.3902 88.4756 50.8383 87.3131 50.8383H53.471C52.3091 50.8383 51.2052 51.3902 50.4499 52.3021L34.7104 71.6738V81.7942H106.076V71.6738H106.075Z"
            fill="#AEB8C2" />
        <path fill-rule="evenodd" clip-rule="evenodd"
            d="M48.046 25.8356H92.7388C93.4367 25.8356 94.1061 26.1128 94.5996 26.6063C95.0931 27.0999 95.3704 27.7692 95.3704 28.4671V89.8777C95.3704 90.5756 95.0931 91.2449 94.5996 91.7385C94.1061 92.232 93.4367 92.5092 92.7388 92.5092H48.046C47.3481 92.5092 46.6787 92.232 46.1852 91.7385C45.6917 91.2449 45.4144 90.5756 45.4144 89.8777V28.4671C45.4144 27.7692 45.6917 27.0999 46.1852 26.6063C46.6787 26.1128 47.3481 25.8356 48.046 25.8356V25.8356Z"
            fill="#F5F5F7" />
        <path fill-rule="evenodd" clip-rule="evenodd"
            d="M53.8671 32.3835H86.9177C87.2667 32.3835 87.6014 32.5222 87.8481 32.7689C88.0949 33.0157 88.2335 33.3504 88.2335 33.6993V50.1184C88.2335 50.4674 88.0949 50.8021 87.8481 51.0488C87.6014 51.2956 87.2667 51.4342 86.9177 51.4342H53.8671C53.5181 51.4342 53.1834 51.2956 52.9367 51.0488C52.6899 50.8021 52.5513 50.4674 52.5513 50.1184V33.6993C52.5513 33.3504 52.6899 33.0157 52.9367 32.7689C53.1834 32.5222 53.5181 32.3835 53.8671 32.3835ZM54.0394 58.577H86.7454C87.1401 58.577 87.5186 58.7338 87.7977 59.0128C88.0767 59.2919 88.2335 59.6704 88.2335 60.0651C88.2335 60.4598 88.0767 60.8383 87.7977 61.1174C87.5186 61.3965 87.1401 61.5533 86.7454 61.5533H54.0394C53.6448 61.5533 53.2662 61.3965 52.9872 61.1174C52.7081 60.8383 52.5513 60.4598 52.5513 60.0651C52.5513 59.6704 52.7081 59.2919 52.9872 59.0128C53.2662 58.7338 53.6448 58.577 54.0394 58.577ZM54.0394 66.3158H86.7454C87.1401 66.3158 87.5187 66.4726 87.7979 66.7518C88.077 67.0309 88.2339 67.4095 88.2339 67.8043C88.2339 68.199 88.077 68.5776 87.7979 68.8568C87.5187 69.1359 87.1401 69.2928 86.7454 69.2928H54.0394C53.6447 69.2928 53.2661 69.1359 52.9869 68.8568C52.7078 68.5776 52.551 68.199 52.551 67.8043C52.551 67.4095 52.7078 67.0309 52.9869 66.7518C53.2661 66.4726 53.6447 66.3158 54.0394 66.3158ZM105.93 94.9355C105.42 96.9559 103.629 98.4618 101.499 98.4618H39.2862C37.1559 98.4618 35.3651 96.9553 34.8559 94.9355C34.7588 94.5505 34.7097 94.1549 34.7098 93.7579V71.6743H52.0243C53.9368 71.6743 55.4783 73.2849 55.4783 75.2401V75.2664C55.4783 77.221 57.0375 78.7993 58.95 78.7993H81.8348C83.7473 78.7993 85.3066 77.2066 85.3066 75.2513V75.2434C85.3066 73.2881 86.848 71.6737 88.7605 71.6737H106.075V93.7585C106.075 94.1645 106.024 94.5585 105.93 94.9355Z"
            fill="#DCE0E6" />
        <path fill-rule="evenodd" clip-rule="evenodd"
            d="M108.106 26.9026L103.612 28.6461C103.497 28.6909 103.371 28.7023 103.25 28.6789C103.128 28.6555 103.015 28.5982 102.925 28.5137C102.834 28.4292 102.77 28.3208 102.738 28.2011C102.706 28.0813 102.709 27.9551 102.746 27.8368L104.02 23.7533C102.317 21.8164 101.317 19.4546 101.317 16.9059C101.317 10.3303 107.974 5 116.185 5C124.395 5 131.053 10.3303 131.053 16.9059C131.053 23.4816 124.396 28.8118 116.185 28.8118C113.206 28.8118 110.432 28.1105 108.106 26.9026Z"
            fill="#AEB8C2" />
        <path
            d="M122.042 19.0559C123.077 19.0559 123.916 18.2267 123.916 17.2039C123.916 16.1811 123.077 15.3519 122.042 15.3519C121.007 15.3519 120.168 16.1811 120.168 17.2039C120.168 18.2267 121.007 19.0559 122.042 19.0559Z"
            fill="white" />
        <path fill-rule="evenodd" clip-rule="evenodd"
            d="M112.203 18.8243H108.454L110.36 15.5835L112.203 18.8243ZM114.545 15.5835H117.825V18.8243H114.545V15.5835Z"
            fill="white" />
    </g>
    <defs>
        <clipPath id="clip0">
            <rect width="121" height="130" fill="white" transform="translate(10 5)" />
        </clipPath>
    </defs>
</svg>