<svg viewBox="0 0 30 30" fill="none" xmlns="http://www.w3.org/2000/svg">
    <g clip-path="url(#clip0)">
        <path
            d="M5.07692 21.5638V18.4243C5.07692 18.2673 4.92308 18.1104 4.76923 18.1104H3.38462C3.23077 18.1104 3.07692 18.2673 3.07692 18.4243V19.8371H0V21.8778H4.76923C4.92308 21.8778 5.07692 21.7208 5.07692 21.5638Z"
            fill="currentColor" />
        <path
            d="M8.92307 18.7381C9.23076 18.7381 9.6923 18.5812 9.99999 18.2672C10.3077 17.9533 10.4615 17.6393 10.4615 17.1684C10.4615 16.8544 10.3077 16.3835 9.99999 16.0696C9.6923 15.9126 9.38461 15.7556 8.92307 15.7556C8.61537 15.7556 8.15384 15.9126 7.84614 16.2265C7.6923 16.5405 7.53845 16.8544 7.53845 17.3254C7.53845 17.6393 7.6923 18.1102 7.99999 18.4242C8.15384 18.5812 8.61537 18.7381 8.92307 18.7381Z"
            fill="currentColor" />
        <path
            d="M16.1538 11.3604V11.2034L15.2308 9.63364L15.0769 9.47666H14.9231L13.0769 10.5755L10.1538 2.56975C10 2.09883 9.84615 1.78488 9.38461 1.47093C8.92308 1.15698 8.46154 1 8 1H0V3.66858H7.84615L10.6154 11.3604H0V13.401H11.2308L11.8462 14.9708V23.7614H0V26.43H9.84615L10.1538 27.6858C10.3077 28.1567 10.6154 28.4707 11.0769 28.4707H13.5385C14 28.4707 14.4615 27.9997 14.4615 27.3718V14.6568C14.4615 14.4999 14.4615 14.3429 14.4615 14.3429L13.8462 12.7731L16 11.5173L16.1538 11.3604Z"
            fill="currentColor" />
        <path
            d="M23.8462 17.1684C20.4616 17.1684 17.6923 14.3428 17.6923 10.8894C17.6923 7.43591 20.4616 4.61035 23.8462 4.61035C27.2308 4.61035 30 7.43591 30 10.8894C30 14.3428 27.2308 17.1684 23.8462 17.1684ZM23.8462 6.65103C21.5385 6.65103 19.8462 8.53473 19.8462 10.7324C19.8462 12.93 21.6923 14.8137 23.8462 14.8137C26 14.8137 27.8462 12.93 27.8462 10.7324C27.8462 8.53473 26.1539 6.65103 23.8462 6.65103Z"
            fill="currentColor" />
        <path d="M24.6154 16.3835H23.0769V27.3718H24.6154V16.3835Z" fill="currentColor" />
        <path
            d="M26.4616 28.4706H21.3846C21.0769 28.4706 20.9231 28.2744 20.9231 27.8819V26.7046C20.9231 26.3122 21.0769 26.116 21.3846 26.116H26.4616C26.7693 26.116 26.9231 26.3122 26.9231 26.7046V27.8819C26.9231 28.0782 26.7693 28.4706 26.4616 28.4706Z"
            fill="currentColor" />
    </g>
    <defs>
        <clipPath id="clip0">
            <rect width="30" height="27.7846" fill="currentColor" transform="translate(0 1)" />
        </clipPath>
    </defs>
</svg>