<svg viewBox="0 0 17 16" fill="none" xmlns="http://www.w3.org/2000/svg">
<path d="M13.5378 15.1309L15.616 13.0508C15.8699 12.7969 16.0125 12.457 16.0125 12.0977C16.0125 11.7383 15.8718 11.3984 15.616 11.1445L13.3796 8.9043C13.1257 8.65039 12.7839 8.50781 12.4246 8.50781C12.0632 8.50781 11.7253 8.64844 11.4695 8.9043L9.71753 10.6543C8.78865 10.2556 7.94468 9.68282 7.2312 8.9668C6.5105 8.25 5.94214 7.41211 5.5398 6.48242L7.29175 4.73242C7.54566 4.47852 7.68823 4.13867 7.68823 3.7793C7.68889 3.60204 7.65416 3.42643 7.58608 3.26276C7.51799 3.0991 7.41793 2.95067 7.29175 2.82617L5.05542 0.583984C4.80151 0.330078 4.45972 0.187499 4.10034 0.187499C3.73901 0.187499 3.40112 0.328125 3.14527 0.583984L1.06714 2.66211C0.633546 3.0957 0.3855 3.69336 0.3855 4.30664C0.3855 4.43359 0.395265 4.55664 0.41675 4.68164C0.842531 7.26758 2.21948 9.83398 4.2898 11.9062C6.36401 13.9766 8.93042 15.3516 11.5183 15.7812C12.2527 15.9043 13.0085 15.6582 13.5378 15.1309ZM11.7507 14.3965C9.448 14.0156 7.15112 12.7773 5.28589 10.9121C3.42065 9.04687 2.18237 6.75195 1.80152 4.44922C1.75269 4.16016 1.85034 3.86328 2.05933 3.65234L4.10034 1.61133L6.26636 3.77539L3.92261 6.11523L3.90503 6.13281L4.06128 6.55469C4.53158 7.83384 5.27441 8.99544 6.23827 9.95897C7.20214 10.9225 8.36399 11.6649 9.64331 12.1348L10.0652 12.291L12.4226 9.93164L14.5886 12.0957L12.5476 14.1367C12.3367 14.3477 12.0398 14.4453 11.7507 14.3965Z" fill="currentColor" />
</svg>
