<svg viewBox="0 0 25 25" fill="none" xmlns="http://www.w3.org/2000/svg">
    <path
        d="M8.73374 2.5825C9.28071 2.41759 9.86768 2.44498 10.3969 2.66014C10.9261 2.87529 11.3657 3.26521 11.6425 3.765L11.7362 3.95125L12.5625 5.79C12.8136 6.34811 12.8951 6.96773 12.7969 7.5718C12.6987 8.17587 12.425 8.73773 12.01 9.1875L11.845 9.3525L10.54 10.5688C10.305 10.7913 10.4812 11.6525 11.3325 13.125C12.0962 14.45 12.72 15.0688 13.025 15.1025H13.0787L13.145 15.09L15.7075 14.3063C16.0519 14.2006 16.4194 14.1965 16.7661 14.2942C17.1128 14.392 17.424 14.5875 17.6625 14.8575L17.7775 15.0013L19.4725 17.3513C19.8051 17.8117 19.971 18.3717 19.9428 18.9391C19.9146 19.5064 19.6941 20.0472 19.3175 20.4725L19.165 20.63L18.4862 21.2725C17.8779 21.8487 17.1168 22.238 16.2936 22.3942C15.4704 22.5504 14.6196 22.467 13.8425 22.1538C11.4237 21.1788 9.22624 18.9513 7.22999 15.4938C5.22999 12.0275 4.39874 9.00625 4.76999 6.41875C4.88244 5.63644 5.20471 4.89921 5.70256 4.28537C6.20041 3.67153 6.85524 3.20402 7.59749 2.9325L7.83874 2.8525L8.73374 2.5825Z"
        fill="currentColor" />
</svg>