<svg viewBox="0 0 14 14" fill="none" xmlns="http://www.w3.org/2000/svg">
<path d="M6.53125 1.37571H7.46875C7.55208 1.37571 7.59375 1.41738 7.59375 1.50071V12.5007C7.59375 12.584 7.55208 12.6257 7.46875 12.6257H6.53125C6.44792 12.6257 6.40625 12.584 6.40625 12.5007V1.50071C6.40625 1.41738 6.44792 1.37571 6.53125 1.37571Z" fill="currentColor"/>
<path d="M1.75 6.40696H12.25C12.3333 6.40696 12.375 6.44863 12.375 6.53196V7.46947C12.375 7.5528 12.3333 7.59447 12.25 7.59447H1.75C1.66667 7.59447 1.625 7.5528 1.625 7.46947V6.53196C1.625 6.44863 1.66667 6.40696 1.75 6.40696Z" fill="currentColor"/>
</svg>
