<svg viewBox="0 0 30 27" fill="none" xmlns="http://www.w3.org/2000/svg">
    <path
        d="M29.0374 10.0125H18.6096V1.14897C18.6096 0.519773 18.1016 0 17.4866 0H0.962567C0.427808 0 0 0.437703 0 0.984833V12.1189C0 12.666 0.427808 13.1037 0.962567 13.1037H3.63636V16.5507C3.63636 16.6327 3.71658 16.7148 3.79679 16.7148C3.82353 16.7148 3.87701 16.6874 3.90374 16.6601L7.48663 13.1311H11.3904V22.1587C11.3904 22.7059 11.8182 23.1436 12.3529 23.1436H22.5134L26.0963 26.7273C26.123 26.7546 26.1765 26.782 26.2032 26.782C26.2834 26.782 26.3636 26.7273 26.3636 26.6178V23.1162H29.0374C29.5722 23.1162 30 22.6785 30 22.1314V10.9973C30 10.4502 29.5722 10.0125 29.0374 10.0125ZM7.51337 11.3803H6.84492C6.81818 11.3803 6.79144 11.3803 6.76471 11.4076L6.31016 11.8727L5.32086 12.8575L5.29412 11.3803H3.60963H1.68449V1.72346H16.9251V11.3803H7.51337ZM28.3155 21.3928H26.3636H24.6791L24.6524 22.87L23.6898 21.8852L23.2353 21.4201C23.2086 21.3928 23.1818 21.3928 23.1551 21.3928H22.4866H13.0749V13.1311H17.6471C18.1818 13.1311 18.6096 12.6934 18.6096 12.1463V11.7633H28.3155V21.3928Z"
        fill="currentColor" />
    <path
        d="M10.7754 8.17954C10.9626 7.96069 11.0963 7.71448 11.2032 7.46827C11.3102 7.13999 11.3904 6.757 11.3904 6.34666C11.3904 5.55332 11.1765 4.92412 10.7487 4.45906C10.3209 4.02135 9.75938 3.77515 9.03745 3.77515C8.31553 3.77515 7.75403 3.994 7.32622 4.45906C6.89841 4.89676 6.68451 5.52596 6.68451 6.34666C6.68451 7.16735 6.89841 7.79655 7.32622 8.23425C7.75403 8.67196 8.31553 8.91816 9.06419 8.91816C9.43852 8.91816 9.78611 8.83609 10.107 8.69931C10.508 8.97288 10.7219 9.10966 10.7487 9.13702C10.8824 9.21909 11.0428 9.2738 11.1765 9.32851L11.5241 8.61724C11.2834 8.48046 11.0161 8.34368 10.7754 8.17954ZM10.2674 7.05792C10.2139 7.27677 10.107 7.44091 9.97328 7.60505C9.67916 7.3862 9.38504 7.22206 9.06419 7.11264L8.79681 7.68712C9.01071 7.76919 9.19788 7.85126 9.41178 7.98804C9.27809 8.04276 9.1444 8.07011 9.01071 8.07011C8.63638 8.07011 8.31553 7.93333 8.07488 7.63241C7.83424 7.33149 7.70055 6.92114 7.70055 6.34666C7.70055 5.77217 7.83424 5.36182 8.07488 5.0609C8.31553 4.75998 8.63638 4.6232 9.03745 4.6232C9.43852 4.6232 9.75938 4.75998 10 5.03354C10.2407 5.30711 10.3743 5.74481 10.3743 6.3193C10.3743 6.59286 10.3476 6.83907 10.2674 7.05792Z"
        fill="currentColor" />
    <path
        d="M18.5562 19.0128H19.5989L20 17.8912H21.9251L22.3529 19.0128H23.4225L21.4973 14.0613H20.4545L18.5562 19.0128ZM21.6043 17.0431H20.2941L20.9358 15.2103L21.6043 17.0431Z"
        fill="currentColor" />
</svg>