<svg viewBox="0 0 14 14" fill="none" xmlns="http://www.w3.org/2000/svg">
    <path
        d="M13.4625 12.6016L9.40469 8.54383C10.0344 7.72977 10.375 6.73446 10.375 5.68758C10.375 4.43446 9.88594 3.25946 9.00156 2.37352C8.11719 1.48758 6.93906 1.00008 5.6875 1.00008C4.43594 1.00008 3.25781 1.48915 2.37344 2.37352C1.4875 3.2579 1 4.43446 1 5.68758C1 6.93915 1.48906 8.11727 2.37344 9.00165C3.25781 9.88758 4.43437 10.3751 5.6875 10.3751C6.73437 10.3751 7.72812 10.0345 8.54219 9.40633L12.6 13.4626C12.6119 13.4745 12.626 13.4839 12.6416 13.4904C12.6571 13.4968 12.6738 13.5001 12.6906 13.5001C12.7075 13.5001 12.7241 13.4968 12.7397 13.4904C12.7552 13.4839 12.7694 13.4745 12.7812 13.4626L13.4625 12.7829C13.4744 12.771 13.4838 12.7569 13.4903 12.7413C13.4967 12.7258 13.5001 12.7091 13.5001 12.6923C13.5001 12.6754 13.4967 12.6588 13.4903 12.6432C13.4838 12.6277 13.4744 12.6135 13.4625 12.6016ZM8.1625 8.16258C7.5 8.82352 6.62187 9.18758 5.6875 9.18758C4.75312 9.18758 3.875 8.82352 3.2125 8.16258C2.55156 7.50008 2.1875 6.62196 2.1875 5.68758C2.1875 4.75321 2.55156 3.87352 3.2125 3.21258C3.875 2.55165 4.75312 2.18758 5.6875 2.18758C6.62187 2.18758 7.50156 2.55008 8.1625 3.21258C8.82344 3.87508 9.1875 4.75321 9.1875 5.68758C9.1875 6.62196 8.82344 7.50165 8.1625 8.16258Z"
        fill="currentColor" />
</svg>