<svg viewBox="0 0 30 30" fill="none" xmlns="http://www.w3.org/2000/svg">
    <path
        d="M25.1513 22.3711C24.5987 21.062 23.7967 19.873 22.79 18.8701C21.7864 17.8644 20.5975 17.0625 19.289 16.5088C19.2773 16.5029 19.2656 16.5 19.2539 16.4941C21.0791 15.1758 22.2656 13.0283 22.2656 10.6055C22.2656 6.5918 19.0136 3.33984 15 3.33984C10.9863 3.33984 7.73433 6.5918 7.73433 10.6055C7.73433 13.0283 8.92085 15.1758 10.746 16.4971C10.7343 16.5029 10.7226 16.5059 10.7109 16.5117C9.39839 17.0654 8.22065 17.8594 7.20991 18.873C6.20418 19.8767 5.40231 21.0655 4.84858 22.374C4.30461 23.655 4.01123 25.0285 3.98433 26.4199C3.98354 26.4512 3.98903 26.4823 4.00046 26.5114C4.01188 26.5405 4.02902 26.5671 4.05087 26.5895C4.07271 26.6118 4.09881 26.6296 4.12764 26.6418C4.15646 26.6539 4.18742 26.6602 4.2187 26.6602H5.97651C6.10542 26.6602 6.20796 26.5576 6.21089 26.4316C6.26948 24.1699 7.17769 22.0518 8.78315 20.4463C10.4443 18.7852 12.6503 17.8711 15 17.8711C17.3496 17.8711 19.5556 18.7852 21.2168 20.4463C22.8222 22.0518 23.7304 24.1699 23.789 26.4316C23.7919 26.5605 23.8945 26.6602 24.0234 26.6602H25.7812C25.8125 26.6602 25.8434 26.6539 25.8723 26.6418C25.9011 26.6296 25.9272 26.6118 25.949 26.5895C25.9709 26.5671 25.988 26.5405 25.9994 26.5114C26.0109 26.4823 26.0164 26.4512 26.0156 26.4199C25.9863 25.0195 25.6962 23.6572 25.1513 22.3711ZM15 15.6445C13.6552 15.6445 12.3896 15.1201 11.4375 14.168C10.4853 13.2158 9.96089 11.9502 9.96089 10.6055C9.96089 9.26074 10.4853 7.99512 11.4375 7.04297C12.3896 6.09082 13.6552 5.56641 15 5.56641C16.3447 5.56641 17.6103 6.09082 18.5625 7.04297C19.5146 7.99512 20.039 9.26074 20.039 10.6055C20.039 11.9502 19.5146 13.2158 18.5625 14.168C17.6103 15.1201 16.3447 15.6445 15 15.6445Z"
        fill="currentColor" />
</svg>